<svg xmlns="http://www.w3.org/2000/svg" viewBox="0 0 440 440" fill="none" shape-rendering="auto" width="512" height="512"><desc>"Face Generator" by "The Visual Team", licensed under "CC BY 4.0". / Remix of the original. - Created with dicebear.com</desc><metadata xmlns:dc="http://purl.org/dc/elements/1.1/" xmlns:cc="http://creativecommons.org/ns#" xmlns:rdf="http://www.w3.org/1999/02/22-rdf-syntax-ns#"><rdf:RDF><cc:Work><dc:title>Face Generator</dc:title><dc:creator><cc:Agent rdf:about="https://thevisual.team/"><dc:title>The Visual Team</dc:title></cc:Agent></dc:creator><dc:source>https://www.figma.com/community/file/986078800058673824</dc:source><cc:license rdf:resource="https://creativecommons.org/licenses/by/4.0/" /></cc:Work></rdf:RDF></metadata><mask id="viewboxMask"><rect width="440" height="440" rx="0" ry="0" x="0" y="0" fill="#fff" /></mask><g mask="url(#viewboxMask)"><g transform="matrix(.71048 0 0 .71048 24 2)"><path d="M287.2 73H277C175.7 73 93.6 167 93.6 283v141l377 81.4V283C470.6 167 388.5 73 287.2 73Z" fill="#e8e1e1"/></g><g transform="translate(81.7 150.7) scale(.71856)"><path d="M309 148H71v124h.3v1.3c0 29.8 53.3 77.4 119 77.4 65.8 0 119.1-47.6 119.1-77.4 0-1.6-.1-3.1-.4-4.7V148Z" fill="#f8b788"/><path d="M71.2 253.6v.9-.9ZM71.2 254.5v18.8c0 29.8 53.4 77.4 119.1 77.4 65.8 0 119.1-47.6 119.1-77.4v-19.7.9c0 29.9-53.3 77.4-119 77.4-65.8 0-119.1-47.5-119.2-77.4Z" fill="#000" fill-opacity=".2"/><path d="M309 152.5c0 55.9-54.2 101.8-120 101.8-65.7 0-119-45.3-119-101.2C70 97.3 123.3 52 189 52c65.8 0 120 44.6 120 100.5Z" fill="#f8b788"/></g><g transform="translate(199.5 333.4) scale(.71856)"><path fill-rule="evenodd" clip-rule="evenodd" d="M-1.5 27.9-6 31.4a3.2 3.2 0 1 1-3.7-5.2l4-3.1 2.3-1.9c2.3-1.7 4.8-3.6 7.8-5.2a52 52 0 0 1 25.8-5.7 52.5 52.5 0 0 1 38.2 16.5 3.2 3.2 0 1 1-4.8 4 46.3 46.3 0 0 0-33.4-14c-11 0-17.7 2-22.8 4.8a48 48 0 0 0-6.9 4.6l-2 1.7Z" fill="#000"/></g><g transform="translate(280.7 235.4) scale(.71856)"><path d="M24 43.3C24 31.5 33.5 22 45.3 22h37.2c11.8 0 21.4 9.5 21.4 21.3v37.3c0 11.8-9.6 21.4-21.4 21.4H45.3A21.3 21.3 0 0 1 24 80.6V43.3Z" fill="#f8b788"/><path d="M32.9 62A31 31 0 1 1 95 62a31 31 0 1 1-62.1 0Z" fill="#000" fill-opacity=".2"/></g><g transform="matrix(-.71856 0 0 .71856 161.5 235.4)"><path d="M24 43.3C24 31.5 33.5 22 45.3 22h37.2c11.8 0 21.4 9.5 21.4 21.3v37.3c0 11.8-9.6 21.4-21.4 21.4H45.3A21.3 21.3 0 0 1 24 80.6V43.3Z" fill="#f8b788"/><path d="M32.9 62A31 31 0 1 1 95 62a31 31 0 1 1-62.1 0Z" fill="#000" fill-opacity=".2"/></g><g transform="translate(114.8 215.5) scale(.71856)"><g stroke="#000" stroke-linecap="round"><path d="M184.9 51.7c3.7-3 9.3-8.7 20.4-8.7 9.4 0 17.3 6.4 18.7 8.7M106 51.7c-3.6-3-9.3-8.7-20.3-8.7-9.4 0-17.3 6.4-18.7 8.7" stroke-width="7"/><path d="m73 74 35.5 15.5L73 110M220.5 74 185 89.5l35.5 20.5" stroke-width="4" stroke-linejoin="round"/></g></g><g transform="translate(127.7 288.7) scale(.71856)"></g><g transform="translate(193 279.4) scale(.71856)"><path d="M5.6 34.4a17 17 0 0 0 16.3 21.4h33.7A16.9 16.9 0 0 0 72 34.4C70 41.6 63.4 47 55.6 47H22c-7.8 0-14.4-5.3-16.3-12.5Z" fill="#000" fill-opacity=".2"/></g><g transform="matrix(.52237 0 0 .52237 122.9 244.8)"><path d="M43.1 45C43 31.8 41.5 1 25.6 0 8 0 8.6 33.7 7.8 45c-.9 10-3.5 17.3 0 36.4C9.8 92.6 17.5 94 25.6 94c7.6 0 15.6-.9 17.5-9.6 4-18 .3-26.2 0-39.4Z" fill="#e8e1e1"/></g><g transform="matrix(-.52237 0 0 .52237 315.7 244.8)"><path d="M43.1 45C43 31.8 41.5 1 25.6 0 8 0 8.6 33.7 7.8 45c-.9 10-3.5 17.3 0 36.4C9.8 92.6 17.5 94 25.6 94c7.6 0 15.6-.9 17.5-9.6 4-18 .3-26.2 0-39.4Z" fill="#e8e1e1"/></g><g transform="matrix(.52237 0 0 .52237 108.7 145.6)"><path d="M375 133c6.5 15.9 11.5 34.5 11.5 70-11 0-47.9-4.6-107.3-23-59.5-18.4-101.6-50-114.7-69.5.3 6 0 34-19.7 55A124.2 124.2 0 0 1 39 203c0-23.1 2-46 10.9-67.4A176 176 0 0 1 212 27a175 175 0 0 1 124 51.5c16.4 16.4 30.2 33.1 39 54.5Z" fill="#e8e1e1"/></g></g></svg>